<svg id="Layer_1" data-name="Layer 1" xmlns="http://www.w3.org/2000/svg" viewBox="0 0 28.83 18.45"><defs><style>.cls-1{fill:#fff;}</style></defs><title>googleplus</title><path class="cls-1" d="M10.12,11.13h4.5A5.73,5.73,0,1,1,13.06,5a.62.62,0,0,0,.84,0l1.65-1.56a.62.62,0,0,0,0-.9A9.19,9.19,0,0,0,9.41,0a9.22,9.22,0,1,0,9,9.74c0-.06,0-2.12,0-2.12H10.12a.62.62,0,0,0-.62.62v2.26A.62.62,0,0,0,10.12,11.13Z"/><path class="cls-1" d="M26.08,7.83V5.62a.54.54,0,0,0-.54-.54H23.67a.54.54,0,0,0-.54.54V7.83H20.92a.54.54,0,0,0-.54.54v1.86a.54.54,0,0,0,.54.54h2.21V13a.54.54,0,0,0,.54.54h1.86a.54.54,0,0,0,.54-.54V10.78h2.21a.54.54,0,0,0,.54-.54V8.37a.54.54,0,0,0-.54-.54Z"/></svg>