<?xml version="1.0" encoding="utf-8"?>
<!-- Generator: Adobe Illustrator 22.0.0, SVG Export Plug-In . SVG Version: 6.00 Build 0)  -->
<svg version="1.1" id="Layer_1" xmlns="http://www.w3.org/2000/svg" xmlns:xlink="http://www.w3.org/1999/xlink" x="0px" y="0px"
	 viewBox="0 0 114.7 76.1" style="enable-background:new 0 0 114.7 76.1;" xml:space="preserve">
<style type="text/css">
	.st0{fill:#FFFFFF;}
	.st1{fill-rule:evenodd;clip-rule:evenodd;fill:none;stroke:#000000;stroke-width:0.5;stroke-miterlimit:10;}
	.st2{fill-rule:evenodd;clip-rule:evenodd;fill:none;stroke:#FFFFFF;stroke-width:2;stroke-miterlimit:10;}
	.st3{fill-rule:evenodd;clip-rule:evenodd;fill:#FFFFFF;}
</style>
<g>
	<path class="st0" d="M96.3,12.1c3.4-1.4,6.9-0.5,8,2c1,2.5-0.9,5.6-4.3,7c-3.4,1.4-6.9,0.5-8-2C91,16.7,92.9,13.5,96.3,12.1z"/>
	<path class="st0" d="M103.4,28.3c-1-2.4-4.5-3.2-7.9-1.8c-3.4,1.4-5.4,4.4-4.4,6.8c1,2.4,4.5,3.2,7.9,1.8
		C102.4,33.7,104.4,30.7,103.4,28.3z"/>
	<path class="st0" d="M87.1,13.7c2.1,1.4,5.4-0.1,7.4-3.3c2-3.2,1.8-7-0.3-8.4c-2.1-1.4-5.4,0.1-7.4,3.3C84.8,8.5,85,12.3,87.1,13.7
		z"/>
	<path class="st0" d="M80.8,8.9c2-3.2,1.8-7-0.3-8.4c-2.1-1.4-5.4,0.1-7.4,3.3c-2,3.2-1.8,7,0.3,8.4C75.5,13.6,78.9,12.1,80.8,8.9z"
		/>
	<g>
		<g>
			<path class="st0" d="M27.5,14.4c8.7,0,10.6,6.4,10.6,9.5c0,14.3-20.9,16.4-20.9,23.2c0,4.5,1.9,11,1.9,11.3
				c0,0.6-1.2,0.5-1.6,0.5h-7.1c-1.3,0-2.9,1-2.9-19c0-26.4,2.8-25.5,3.7-25.5H27.5z M29.4,25.7c0-3.7-3.2-4.9-6.4-4.9
				c-3.8,0-7,0.6-6.9,12.9c0,1.3,0.1,2.5,1.7,2.5C20.5,36.1,29.4,29.5,29.4,25.7z"/>
		</g>
	</g>
	<g>
		<g>
			<path class="st0" d="M29.1,51c0-6.5,3.6-9.8,7.2-9.8c3,0,5.5,1.7,5.5,4.9c0,5.8-8.7,4.6-8.7,7.4c0,1.3,2,2.2,3.4,2.2
				c4.4,0,4.4-3.4,4.8-3.4c0.4,0,0.5,1.4,0.5,1.6c0,3.4-2.6,5.4-5.9,5.4C31.1,59.3,29.1,55.3,29.1,51z M32.7,48.3
				c0,0.3,0.1,0.6,0.5,0.6c0.3,0,5.2-1.1,5.2-2.5c0-1.3-1.2-2.1-2.3-2.1C34,44.4,32.7,46.8,32.7,48.3z"/>
			<path class="st0" d="M50.2,38.3c0,0.7-0.8,2.4-0.8,2.7c0,0.5,0.1,0.8,0.5,0.8c0.4,0,0.7-0.1,1-0.1c1,0,1.1,0.7,1.1,1.6
				c0,0.4,0,1.4-0.6,1.4c-0.2,0-0.8-0.2-1.2-0.2c-1.5,0-1.5,1.7-1.5,4.1c0,7.2,1.5,8.4,1.5,8.8c0,0.4-3.1,1.9-3.7,1.9
				c-1,0-1.3-6-1.3-7.5c0-3.3,0.2-4.6,0.2-5.1c0-0.8,0.2-2.2-1-2.2c-0.5,0-0.8,0.3-1.1,0.3c-0.4,0-0.3-0.4-0.3-0.8
				c0-2.1,0.6-2.3,1.6-2.3c0.1,0,0.3,0.1,0.5,0.1c0.8,0,0.9-1.3,1.1-2.3c0.1-1,3.2-1.8,3.7-1.8C50.1,37.7,50.2,37.8,50.2,38.3z"/>
		</g>
	</g>
	<g>
		<g>
			<path class="st0" d="M78.4,14.8c8.7,0,10.6,6.4,10.6,9.5c0,14.3-20.9,16.4-20.9,23.2c0,4.5,1.9,11,1.9,11.3
				c0,0.6-1.2,0.5-1.6,0.5h-7.1c-1.3,0-2.9,1-2.9-19c0-26.4,2.8-25.5,3.7-25.5H78.4z M80.3,26c0-3.7-3.2-4.9-6.4-4.9
				c-3.8,0-7,0.6-6.9,12.9c0,1.3,0.1,2.5,1.7,2.5C71.4,36.4,80.3,29.8,80.3,26z"/>
		</g>
	</g>
	<g>
		<g>
			<path class="st0" d="M88.5,48c0.8-0.1,1.4-0.3,1.4-1.2c0-1.4-1.4-2.1-2.6-2.1c-2.7,0-2.3,2.3-2.9,2.3c-0.9,0-1.8-1.1-1.8-2.2
				c0-2,2.2-3.3,4.7-3.3c0.9,0,4.6,0,5.9,3.8c0.6,1.6,0.6,9.6,0.6,10.5c0,1.2,0.2,1.9,0.2,2.8c0,0.6-2.5,0.6-4.9,0.6
				c-6.5,0-6.9-3.3-6.9-5C82.2,50.9,85.5,48.5,88.5,48z M90.2,52.7c0-0.9,0.2-2.1-1.1-2.1c-1.6,0-3.3,1.3-3.3,3
				c0,1.5,1.3,2.4,2.7,2.4c1.6,0,1.6-0.8,1.6-2.1V52.7z"/>
			<path class="st0" d="M112.9,42c1.1,0,1.3-0.1,1.3,2.7c0,9.8-5.3,15-6,15c-0.8,0-2.2-2.9-2.5-3.6c-0.1-0.2-0.6-1.5-0.9-1.5
				c-0.3,0-0.6,0.7-0.7,0.9c-0.3,0.6-2.2,4.2-2.9,4.2c-0.8,0-5.3-5.8-5.3-14.7c0-3.3,0.4-2.9,1.5-2.9h2.1c0.3,0,0.6,0,0.6,0.4
				c0,0.2-0.3,0.9-0.3,3.3c0,4.6,1.3,8.2,1.7,8.2c0.5,0,2.3-1.8,2.2-8.6c0-1-0.2-2.5-0.2-2.9c0-0.3,0.1-0.4,0.4-0.4h2.7
				c0.2,0,0.6,0,0.6,0.4c0,0.3-0.2,2-0.2,3.4c0,5.1,1.3,8.2,1.9,8.2c0.6,0,2-3.8,2-7.9c0-1.8-0.4-3-0.4-3.7c0-0.5,0.6-0.4,0.9-0.4
				H112.9z"/>
		</g>
	</g>
	<path class="st1" d="M53.3,34.7"/>
	<path class="st2" d="M1.1,22.8c0,0,1,3.2,7.3-7.4l2.1,2.1c0,0,3.1-2.1,6.3-3.2c0.4-0.1,0.7-0.5,0.7-0.9c0.6-3-4.9-11.7-4.9-11.7
		L5.3,5C5.3,5,0.1,10.2,1.1,22.8z"/>
	<line class="st2" x1="8.5" y1="15.5" x2="12.7" y2="1.8"/>
	<path class="st3" d="M12.1,4.5c0,0,3.7,7.9,2.6,11l-2.1,1.1c0,0-1.6-2.1-2.9-5.3"/>
	<path class="st1" d="M42.1,22.6"/>
	<path class="st2" d="M42.6,22.8c0,0-1,3.2-7.3-7.4l-2.1,2.1c0,0-3.1-2.1-6.3-3.2c-0.4-0.1-0.7-0.5-0.7-0.9
		c-0.6-3,4.9-11.7,4.9-11.7L38.4,5C38.4,5,43.7,10.2,42.6,22.8z"/>
	<line class="st2" x1="35.3" y1="15.5" x2="31.1" y2="1.8"/>
	<path class="st3" d="M31.6,4.5c0,0-3.7,7.9-2.6,11l2.1,1.1c0,0,1.6-2.1,2.9-5.3"/>
</g>
<g>
</g>
<g>
</g>
<g>
</g>
<g>
</g>
<g>
</g>
<g>
</g>
<g>
</g>
<g>
</g>
<g>
</g>
<g>
</g>
<g>
</g>
<g>
</g>
<g>
</g>
<g>
</g>
<g>
</g>
</svg>
